<?xml version="1.0" encoding="UTF-8" standalone="no"?>
<!DOCTYPE svg PUBLIC "-//W3C//DTD SVG 1.1//EN" "http://www.w3.org/Graphics/SVG/1.1/DTD/svg11.dtd">
<svg xmlns="http://www.w3.org/2000/svg" version="1.1" viewBox="0.00 0.00 800.00 157.00">
<ellipse fill="#ffffff" cx="0.00" cy="0.00" transform="translate(374.47,36.04) rotate(-0.6)" rx="11.85" ry="10.93"/>
<path fill="#ffffff" d="
  M 101.26 129.49
  C 95.56 129.48 90.95 123.96 91.05 118.58
  Q 91.11 115.69 93.84 110.97
  Q 116.24 72.35 138.77 33.79
  C 142.59 27.24 153.09 27.68 156.80 33.96
  Q 163.40 45.12 169.87 56.35
  Q 170.12 56.78 169.87 57.22
  Q 153.07 86.04 136.32 114.81
  C 132.85 120.76 133.49 123.58 136.90 128.88
  Q 137.29 129.49 136.57 129.49
  Q 118.89 129.53 101.26 129.49
  Z"
/>
<path fill="#ffffff" d="
  M 325.40 88.00
  L 289.61 88.00
  A 0.39 0.39 0.0 0 0 289.22 88.39
  L 289.27 125.61
  A 0.39 0.39 0.0 0 1 288.88 126.00
  L 266.14 126.00
  A 0.39 0.39 0.0 0 1 265.75 125.61
  L 265.75 31.64
  A 0.39 0.39 0.0 0 1 266.14 31.25
  L 288.87 31.25
  A 0.39 0.39 0.0 0 1 289.26 31.64
  L 289.23 68.86
  A 0.39 0.39 0.0 0 0 289.62 69.25
  L 325.42 69.25
  A 0.39 0.39 0.0 0 0 325.81 68.86
  L 325.72 31.64
  A 0.39 0.39 0.0 0 1 326.11 31.25
  L 348.86 31.25
  A 0.39 0.39 0.0 0 1 349.25 31.64
  L 349.25 125.61
  A 0.39 0.39 0.0 0 1 348.86 126.00
  L 326.12 126.00
  A 0.39 0.39 0.0 0 1 325.73 125.61
  L 325.79 88.39
  A 0.39 0.39 0.0 0 0 325.40 88.00
  Z"
/>
<path fill="#ffffff" d="
  M 446.26 66.72
  L 446.23 31.73
  Q 446.23 31.25 446.71 31.25
  L 468.59 31.25
  Q 469.17 31.25 469.17 31.84
  L 469.16 125.05
  A 0.96 0.95 0.0 0 1 468.20 126.00
  L 446.71 126.00
  A 0.54 0.54 0.0 0 1 446.17 125.45
  L 446.46 114.97
  A 0.38 0.38 0.0 0 0 445.74 114.81
  C 441.92 123.54 434.07 127.36 424.67 127.08
  C 411.26 126.69 402.11 116.97 399.10 104.24
  C 395.03 87.05 397.49 60.55 418.79 55.21
  Q 437.43 50.54 445.98 66.79
  Q 446.26 67.32 446.26 66.72
  Z
  M 423.67 78.15
  C 418.44 87.56 419.70 110.61 435.05 109.18
  C 449.32 107.86 449.99 79.86 439.57 73.55
  C 433.75 70.04 426.96 72.22 423.67 78.15
  Z"
/>
<path fill="#ffffff" d="
  M 588.45 99.70
  L 584.58 104.50
  A 0.35 0.35 0.0 0 0 584.50 104.72
  L 584.50 125.65
  A 0.35 0.35 0.0 0 1 584.15 126.00
  L 561.85 126.00
  A 0.35 0.35 0.0 0 1 561.50 125.65
  L 561.50 31.60
  A 0.35 0.35 0.0 0 1 561.85 31.25
  L 584.15 31.25
  A 0.35 0.35 0.0 0 1 584.50 31.60
  L 584.50 80.06
  A 0.35 0.35 0.0 0 0 585.13 80.27
  L 604.86 55.13
  A 0.35 0.35 0.0 0 1 605.14 55.00
  L 630.34 55.00
  A 0.35 0.35 0.0 0 1 630.61 55.57
  L 605.96 85.82
  A 0.35 0.35 0.0 0 0 605.94 86.23
  L 631.62 125.46
  A 0.35 0.35 0.0 0 1 631.32 126.00
  L 605.75 126.00
  A 0.35 0.35 0.0 0 1 605.46 125.84
  L 589.02 99.73
  A 0.35 0.35 0.0 0 0 588.45 99.70
  Z"
/>
<path fill="#ffffff" d="
  M 148.51 115.97
  L 186.30 51.66
  A 8.98 8.98 0.0 0 1 201.78 51.66
  L 239.57 115.97
  A 8.98 8.98 0.0 0 1 231.83 129.50
  L 156.25 129.50
  A 8.98 8.98 0.0 0 1 148.51 115.97
  Z"
/>
<path fill="#ffffff" d="
  M 481.59 79.32
  C 486.08 60.98 502.94 52.28 520.88 54.37
  C 543.02 56.96 551.23 75.04 550.19 95.56
  Q 550.17 96.00 549.73 96.00
  L 503.46 96.00
  A 0.78 0.77 80.7 0 0 502.73 97.02
  C 503.35 98.90 503.26 101.29 504.10 102.92
  Q 509.86 114.14 522.60 109.88
  Q 526.55 108.56 528.49 104.25
  A 0.78 0.78 0.0 0 1 529.22 103.78
  L 549.01 104.19
  A 0.81 0.81 0.0 0 1 549.79 105.17
  C 547.22 116.83 537.89 124.25 526.24 126.51
  C 494.44 132.67 474.06 110.03 481.59 79.32
  Z
  M 528.68 82.26
  C 527.25 66.74 505.40 66.71 502.94 82.35
  Q 502.87 82.75 503.28 82.75
  L 528.24 82.75
  Q 528.73 82.75 528.68 82.26
  Z"
/>
<path fill="#ffffff" d="
  M 704.71 94.76
  A 32.46 32.46 0.0 0 1 672.25 127.22
  L 665.99 127.22
  A 32.46 32.46 0.0 0 1 633.53 94.76
  L 633.53 86.74
  A 32.46 32.46 0.0 0 1 665.99 54.28
  L 672.25 54.28
  A 32.46 32.46 0.0 0 1 704.71 86.74
  L 704.71 94.76
  Z
  M 669.0453 110.4100
  A 19.87 12.83 90.1 0 0 681.9100 90.5624
  A 19.87 12.83 90.1 0 0 669.1147 70.6700
  A 19.87 12.83 90.1 0 0 656.2500 90.5176
  A 19.87 12.83 90.1 0 0 669.0453 110.4100
  Z"
/>
<rect fill="#ffffff" x="-11.48" y="-35.50" transform="translate(374.27,90.50) rotate(0.1)" width="22.96" height="71.00" rx="0.63"/>
</svg>
